PathFileType	4	(X/Y/Z)	pose_F01_0-97.trc
DataRate	CameraRate	NumFrames	NumMarkers	Units	OrigDataRate	OrigDataStartFrame	OrigNumFrames
60	60	6	21	m	60	48	97
Frame#	Time	CHip			RHip			RKnee			RAnkle			RBigToe			RSmallToe			RHeel			LHip			LKnee			LAnkle			LBigToe			LSmallToe			LHeel			Neck			Nose			RShoulder			RElbow			RWrist			LShoulder			LElbow			LWrist			
		X1	Y1	Z1	X2	Y2	Z2	X3	Y3	Z3	X4	Y4	Z4	X5	Y5	Z5	X6	Y6	Z6	X7	Y7	Z7	X8	Y8	Z8	X9	Y9	Z9	X10	Y10	Z10	X11	Y11	Z11	X12	Y12	Z12	X13	Y13	Z13	X14	Y14	Z14	X15	Y15	Z15	X16	Y16	Z16	X17	Y17	Z17	X18	Y18	Z18	X19	Y19	Z19	X20	Y20	Z20	X21	Y21	Z21	
48	0.8	-0.30276384241263016	1.8209148771240298	-0.5942932269821136	-0.3093352261844992	1.818899890487224	-0.5357839303637504	-0.33240614639427296	1.6944837505376975	-0.6011571944232098	-0.2961216136863159	1.5507345954383782	-0.511509098078309	-0.28367235936083984	1.5291750024250224	-0.5409444730114613	-0.2958038482412867	1.549270226348939	-0.5026052097615773	-0.4819780887658177	1.5393766824115518	-0.9668033884165393	-0.28917539472462434	1.8233049085800885	-0.6508065066498094	-0.28163165273882623	1.7077620059354484	-0.6362609226418945	-0.24947342236511336	1.5384958399866855	-0.5240607035241428	-0.35152076211316163	1.514110300416362	-1.048180050711928	-0.34676915498643635	1.523902071143449	-1.0344293003277045	-0.4048451767261316	1.5387190570213976	-0.9912069379363051	-0.2988630074554843	1.9764006646033556	-0.6144898629429141	-0.2622645128550353	2.038672720010913	-0.5851510815920045	-0.3127462967801643	1.9718032665701108	-0.5281408260321244	-0.3311279923655371	1.8930942864037987	-0.482204410694539	-0.29707304670186474	1.8452415683298597	-0.4512383367539322	-0.2809153513144468	1.9806251629462743	-0.7027746221750648	-1.0377316243601873	1.8270775765135931	0.003912998188119218	-0.23539801167141908	1.8324039853257847	-0.7344911271923382
49	0.8166666666666667	-0.3028059272532528	1.818180688844805	-0.5853709041241948	-0.31623508167262127	1.8141106939543092	-0.5235572508077178	-0.33240614639427296	1.6944837505376975	-0.6011571944232098	-0.2961216136863159	1.5507345954383782	-0.511509098078309	-0.28367235936083984	1.5291750024250224	-0.5409444730114613	-0.2958038482412867	1.549270226348939	-0.5026052097615773	-0.4819780887658177	1.5393766824115518	-0.9668033884165393	-0.2945729040940088	1.8224231384511116	-0.6407525465451522	-0.28163165273882623	1.7077620059354484	-0.6362609226418945	-0.24947342236511336	1.5384958399866855	-0.5240607035241428	-0.35152076211316163	1.514110300416362	-1.048180050711928	-0.34676915498643635	1.523902071143449	-1.0344293003277045	-0.4048451767261316	1.5387190570213976	-0.9912069379363051	-0.30118601238417825	1.975192806594328	-0.6121481515952858	-0.26107161689275266	2.041901309749266	-0.5818143122556619	-0.31568737848657524	1.9706250544719486	-0.5203927961160119	-0.3320879753033338	1.891092387604983	-0.47670818925119207	-0.3000522839353562	1.8458032576164793	-0.45236073125997484	-0.2832968397382728	1.9791077306369977	-0.7006015738004739	-1.0304364243610291	1.8266672566187658	-0.002896100866136616	-0.24682290009343502	1.8350635109171265	-0.7232326991215683
50	0.8333333333333334	-0.31228816754782146	1.8147599385720596	-0.5796503299530572	-0.32364628367192494	1.8128048611696046	-0.5199486158552635	-0.33240614639427296	1.6944837505376975	-0.6011571944232098	-0.2961216136863159	1.5507345954383782	-0.511509098078309	-0.28367235936083984	1.5291750024250224	-0.5409444730114613	-0.2958038482412867	1.549270226348939	-0.5026052097615773	-0.4819780887658177	1.5393766824115518	-0.9668033884165393	-0.2968760658961165	1.8193903557661204	-0.6382548328719736	-0.28163165273882623	1.7077620059354484	-0.6362609226418945	-0.24947342236511336	1.5384958399866855	-0.5240607035241428	-0.35152076211316163	1.514110300416362	-1.048180050711928	-0.34676915498643635	1.523902071143449	-1.0344293003277045	-0.4048451767261316	1.5387190570213976	-0.9912069379363051	-0.3032397464962658	1.9758804659720683	-0.6101021875043814	-0.26391377713724823	2.0415943868450834	-0.5821475287795311	-0.3179389421694262	1.9720831388231723	-0.5268325705095973	-0.34237892305345335	1.8939341987794687	-0.47507011404949456	-0.30334385547441983	1.8472191654841965	-0.45362053611450176	-0.287642420493982	1.9772657227161723	-0.6958984248195225	-1.009625788306761	1.8261396492468736	-0.023728172059303	-0.2484883725953334	1.8352109939711794	-0.7178288255437598
51	0.85	-0.3165158527896543	1.8076911855596003	-0.574625892711438	-0.32595117839603505	1.8050295740591265	-0.5169885833668676	-0.33240614639427296	1.6944837505376975	-0.6011571944232098	-0.2961216136863159	1.5507345954383782	-0.511509098078309	-0.28367235936083984	1.5291750024250224	-0.5409444730114613	-0.2958038482412867	1.549270226348939	-0.5026052097615773	-0.4819780887658177	1.5393766824115518	-0.9668033884165393	-0.29978155883557717	1.8099827431818019	-0.6384551944940128	-0.28163165273882623	1.7077620059354484	-0.6362609226418945	-0.24947342236511336	1.5384958399866855	-0.5240607035241428	-0.35152076211316163	1.514110300416362	-1.048180050711928	-0.34676915498643635	1.523902071143449	-1.0344293003277045	-0.4048451767261316	1.5387190570213976	-0.9912069379363051	-0.3085289096359177	1.9770736181267325	-0.6092678596107216	-0.2658482810629689	2.044242480012089	-0.5885492048316776	-0.32102712906345754	1.974303222412967	-0.5284045027164549	-0.3468380404104089	1.8900603070682824	-0.4732319409180736	-0.3022689532794154	1.8416954163331434	-0.44966781809435097	-0.29414397558546934	1.9798718784081561	-0.689650499694334	-0.9913782922813579	1.8250530336185347	-0.04205575462914527	-0.2469583820697207	1.8305597651064303	-0.6941045432090807
52	0.8666666666666667	-0.31911154127928587	1.8135299819806299	-0.5815419599266682	-0.3286745113763339	1.81218325962803	-0.5240846020488034	-0.32811674972112087	1.6891888459769748	-0.4997252804074286	-0.2961216136863159	1.5507345954383782	-0.511509098078309	-0.28367235936083984	1.5291750024250224	-0.5409444730114613	-0.2958038482412867	1.549270226348939	-0.5026052097615773	-0.4819780887658177	1.5393766824115518	-0.9668033884165393	-0.3020869332193467	1.8167012562520486	-0.6453261978507964	-0.28163165273882623	1.7077620059354484	-0.6362609226418945	-0.24947342236511336	1.5384958399866855	-0.5240607035241428	-0.35152076211316163	1.514110300416362	-1.048180050711928	-0.34676915498643635	1.523902071143449	-1.0344293003277045	-0.4048451767261316	1.5387190570213976	-0.9912069379363051	-0.31171073192041493	1.9798041057166067	-0.610861247779935	-0.267772215415085	2.0468111787040573	-0.5870460575541768	-0.3231308291857839	1.975975299710371	-0.53496536644373	-0.34905329634737525	1.8932034233446629	-0.4801397004078395	-0.30584610371159465	1.8483028662424665	-0.460333019425336	-0.29644319998906166	1.982522277533835	-0.6881238617706811	-0.9718820479461632	1.826498074344873	-0.06119590811291612	-0.24339416169490602	1.8377931861548664	-0.6702811411887267
53	0.8833333333333333	-0.3152637837845131	1.8107972952963716	-0.5854042541356012	-0.32602122814515344	1.8101478897046874	-0.5224855101793081	-0.3179875165460304	1.689323555003268	-0.5024478110486416	-0.34495044188022944	1.572220395376698	-0.5168281292876741	-0.28367235936083984	1.5291750024250224	-0.5409444730114613	-0.2958038482412867	1.549270226348939	-0.5026052097615773	-0.4819780887658177	1.5393766824115518	-0.9668033884165393	-0.29934125982668086	1.817610703240189	-0.6443577738607685	-0.28163165273882623	1.7077620059354484	-0.6362609226418945	-0.24947342236511336	1.5384958399866855	-0.5240607035241428	-0.35152076211316163	1.514110300416362	-1.048180050711928	-0.34676915498643635	1.523902071143449	-1.0344293003277045	-0.4048451767261316	1.5387190570213976	-0.9912069379363051	-0.3107201971677025	1.982674149913853	-0.6168092174649845	-0.26963291394044	2.0506698382646062	-0.5852144625449468	-0.3242941550917486	1.9801883342470048	-0.5394050406774544	-0.3494958445452847	1.8970477445532434	-0.4977774324067622	-0.3041505637647589	1.8528998325403443	-0.46347519387701	-0.29731487108982624	1.9863996085348712	-0.6917778697283824	-0.9475923766158039	1.8291180330782748	-0.08876740287469727	-0.24382002181201895	1.847287496592892	-0.6711698774427397
